# xmcd CD database file
#
# Track frame offsets:
#	150
#	13897
#	29577
#	44200
#	60062
#	75780
#	92217
#	107935
#	120987
#	134897
#
# Disc length: 2028 seconds
#
# Revision: 0
# Processed by: cddbd v1.4PL0 Copyright (c) Steve Scherf et al.
# Submitted via: CDex 1.50
#
DISCID=8307ea0a
DTITLE=MC Potts - Straight to You
DYEAR=1900
DGENRE=Country
TTITLE0=Straight to You
TTITLE1=One sided, Too Long
TTITLE2=Put Me Out of My Misery
TTITLE3=Just Enough To Go On
TTITLE4=So Close To Losin' Everything
TTITLE5=Back When
TTITLE6=It Ain't Over
TTITLE7=I Don't See Any Way Out
TTITLE8=Why Do I Do This To Me
TTITLE9=Gonna Live As Much As I Can
EXTD=
EXTT0=
EXTT1=
EXTT2=
EXTT3=
EXTT4=
EXTT5=
EXTT6=
EXTT7=
EXTT8=
EXTT9=
PLAYORDER=
